<?xml version="1.0" encoding="utf-8"?>
<!-- Generator: Adobe Illustrator 19.0.0, SVG Export Plug-In . SVG Version: 6.00 Build 0)  -->
<svg version="1.1" id="layer" xmlns="http://www.w3.org/2000/svg" xmlns:xlink="http://www.w3.org/1999/xlink" x="0px" y="0px"
	 viewBox="-153 -46 652 652" style="enable-background:new -153 -46 652 652;" xml:space="preserve">
<style type="text/css">
	.st0{fill:#BE1F2C;}
</style>
<polygon class="st0" points="-131.2,223.1 -115.9,223.1 -115.9,311.8 -97.4,311.8 -97.4,326 -131.2,326 "/>
<g>
	<path class="st0" d="M-79.1,294.6c0-5.4,1-7.9,6.3-11.3v27.6c0,3.1-0.9,4.6-3.1,4.6c-2.4,0-3.1-1.6-3.1-4.6V294.6z M-58.5,326
		c-0.4-3.3-0.6-6.3-0.6-9.4v-58.3c0-10.7-4.7-16-16.9-16c-11.4,0-16.7,5.3-16.7,16v15.3h13.7v-16.7c0-3,0.6-4.6,3-4.6
		c2.3,0,3.1,1.4,3.1,4.6v7.9c0,7.7-4.4,9-11.4,13.4c-7.1,4.4-8.4,8.7-8.4,16.9v17.6c0,9.3,1.4,14.4,9.6,14.4c4.7,0,7.7-2.3,10.3-7.3
		h0.3v1.7c0,1.7,0.1,3.3,0.4,4.6H-58.5z"/>
	<path class="st0" d="M-35.2,252.3c-2.4,0-3.1,1.6-3.1,4.6v4.6c0,3.9,1,6.9,3.6,10.1l9.7,12.1c3.6,4.6,6.9,6.9,6.9,16.6v11.1
		c0,10.6-5.7,15.9-17,15.9c-11.3,0-17-5.3-17-15.9v-18h13.9v19.3c0,3,0.7,4.7,3.1,4.7c2.3,0,3.1-1.6,3.1-4.7v-6.3
		c0-5-0.3-7.7-3-11.1L-45.8,282c-3.6-4.4-6.4-8.1-6.4-14.9v-8.9c0-10.6,5.7-16,17-16c11.3,0,17,5.4,17,16v15.3h-13.9v-16.7
		C-32.1,253.7-32.9,252.3-35.2,252.3"/>
	<path class="st0" d="M7.1,277H0.8v-20.2c0-3,0.7-4.6,3.1-4.6c2.3,0,3.1,1.4,3.1,4.6V277z M0.8,312.7v-25.9H21v-28.6
		c0-10.6-5.7-16-17-16c-11.3,0-17,5.4-17,16v53.2c0,10.6,5.7,15.9,17,15.9c11.3,0,17-5.3,17-15.9v-18H7.1v19.3c0,3-0.7,4.7-3.1,4.7
		C1.7,317.4,0.8,315.9,0.8,312.7"/>
	<path class="st0" d="M26,243.7h13.4v6.3h0.3c2-4.9,5.4-7.3,10.1-7.3c8.1,0,9.7,5.1,9.7,14.4v19.2H46v-17.5c0-3-0.7-4.7-3.1-4.7
		c-2.3,0-3.1,1.6-3.1,4.7V326H26V243.7z"/>
	<polygon points="65.9,223.1 99.7,223.1 99.7,237.1 81.1,237.1 81.1,263 99.3,263 99.3,276.6 81.1,276.6 81.1,326 65.9,326 	"/>
	<path d="M118.3,256.8c0-3,0.7-4.6,3.1-4.6c2.3,0,3.1,1.4,3.1,4.6v55.9c0,3-0.7,4.7-3.1,4.7c-2.3,0-3.1-1.6-3.1-4.7V256.8z
		 M104.4,258.3v53.2c0,10.6,5.7,15.9,17,15.9c11.3,0,17-5.3,17-15.9v-53.2c0-10.6-5.7-16-17-16C110.1,242.2,104.4,247.7,104.4,258.3
		"/>
	<path d="M160.2,327.3c-11.3,0-17-5.3-17-15.9v-53.2c0-10.6,5.7-16,17-16c11.3,0,17,5.4,17,16v15.3h-13.9v-16.7
		c0-3.1-0.9-4.6-3.1-4.6c-2.4,0-3.1,1.6-3.1,4.6v55.9c0,3.1,0.9,4.7,3.1,4.7c2.4,0,3.1-1.7,3.1-4.7v-19.3h13.9v18
		C177.2,322,171.4,327.3,160.2,327.3"/>
	<path d="M215.3,326h-13.4v-6.3h-0.3c-2,4.9-5.4,7.3-10.1,7.3c-8.1,0-9.7-5.1-9.7-14.4v-68.9h13.7v67.2c0,3,0.7,4.6,3.1,4.6
		c2.3,0,3.1-1.4,3.1-4.6v-67.2h13.6V326z"/>
	<path d="M237.1,252.3c-2.4,0-3.1,1.6-3.1,4.6v4.6c0,3.9,1,6.9,3.6,10.1l9.7,12.1c3.6,4.6,6.9,6.9,6.9,16.6v11.1
		c0,10.6-5.7,15.9-17,15.9c-11.3,0-17-5.3-17-15.9v-18H234v19.3c0,3,0.7,4.7,3.1,4.7c2.3,0,3.1-1.6,3.1-4.7v-6.3c0-5-0.3-7.7-3-11.1
		L226.6,282c-3.6-4.4-6.4-8.1-6.4-14.9v-8.9c0-10.6,5.7-16,17-16c11.3,0,17,5.4,17,16v15.3h-13.9v-16.7
		C240.3,253.7,239.4,252.3,237.1,252.3"/>
	<path class="st0" d="M262,286.4l-6-63.3h15.1l2.9,36.4c0.7,10.1,1.3,23.4,1.7,39.4h1c0.7-22.2,1.3-34.6,1.6-36.9l3.7-39h16.6
		l3.1,41.3c0.3,3.4,0.7,15,0.9,34.6h1c0.6-17.2,1.1-30.3,2.1-39.4l3.7-36.4h12.1l-10,102.9h-16.9l-4.6-61.9
		c-0.3-4.6-0.4-8.9-0.4-13.2v-4.1H289c-0.7,12.6-2.6,39-6,79.2h-18.3C264.4,315.3,263.4,302.1,262,286.4"/>
	<path class="st0" d="M337.1,256.8c0-3,0.7-4.6,3.1-4.6c2.3,0,3.1,1.4,3.1,4.6v55.9c0,3-0.7,4.7-3.1,4.7c-2.3,0-3.1-1.6-3.1-4.7
		V256.8z M323.3,258.3v53.2c0,10.6,5.7,15.9,17,15.9c11.3,0,17-5.3,17-15.9v-53.2c0-10.6-5.7-16-17-16
		C329,242.2,323.3,247.7,323.3,258.3"/>
	<path class="st0" d="M363.3,243.7h13.4v6.3h0.3c2-4.9,5.4-7.3,10.1-7.3c8.1,0,9.7,5.1,9.7,14.4v19.2h-13.6v-17.5
		c0-3-0.7-4.7-3.1-4.7c-2.3,0-3.1,1.6-3.1,4.7V326h-13.7V243.7z"/>
	<rect x="402.3" y="223.1" class="st0" width="13.7" height="102.9"/>
	<path class="st0" d="M442.3,310.9c0,3.1-0.9,4.6-3.1,4.6c-2.4,0-3.1-1.6-3.1-4.6v-52c0-3,0.7-4.7,3.1-4.7c2.3,0,3.1,1.6,3.1,4.7
		V310.9z M455.9,326V223.1h-13.6v26.4h-0.4c-2-4.6-5.3-6.9-9.7-6.9c-8,0-9.9,5.1-9.9,15v54.9c0,9.3,1.6,14.4,9.7,14.4
		c4.7,0,8.1-2.4,10.1-7.3h0.3v6.3H455.9z"/>
	<path d="M463.9,222.9c2.6,0,4.9,1.9,4.9,4.8c0,2.9-2.3,4.8-4.9,4.8c-2.6,0-4.9-1.9-4.9-4.8C458.9,224.8,461.3,222.9,463.9,222.9
		 M463.9,231.4c2,0,3.6-1.6,3.6-3.8c0-2.2-1.6-3.8-3.6-3.8c-2,0-3.6,1.6-3.6,3.8C460.2,229.9,461.8,231.4,463.9,231.4 M461.9,225h2
		c1.3,0,2.1,0.4,2.1,1.6c0,1-0.6,1.4-1.4,1.4l1.4,2.3H465l-1.3-2.3H463v2.3h-1.1V225z M463,227.2h0.9c0.6,0,1-0.1,1-0.7
		c0-0.6-0.6-0.7-1.1-0.7H463V227.2z"/>
</g>
</svg>
