<?xml version="1.0" encoding="UTF-8" standalone="no" ?>
<!DOCTYPE svg PUBLIC "-//W3C//DTD SVG 1.1//EN" "http://www.w3.org/Graphics/SVG/1.1/DTD/svg11.dtd">
<svg xmlns="http://www.w3.org/2000/svg" xmlns:xlink="http://www.w3.org/1999/xlink" version="1.1" width="150" height="150" viewBox="0 0 93.75 93.75" xml:space="preserve">
<desc>Created with Fabric.js 3.6.3</desc>
<defs>
</defs>
<g transform="matrix(0.6 0 0 0.6 7.05 17.37)"  >
<path style="stroke: none; stroke-width: 1; stroke-dasharray: none; stroke-linecap: butt; stroke-dashoffset: 0; stroke-linejoin: miter; stroke-miterlimit: 4; fill: rgb(255,255,255); fill-rule: nonzero; opacity: 1;"  transform=" translate(-12, -12)" d="M 20.447 20.452 h -3.554 v -5.569 c 0 -1.328 -0.027 -3.037 -1.852 -3.037 c -1.853 0 -2.136 1.445 -2.136 2.939 v 5.667 H 9.351 V 9 h 3.414 v 1.561 h 0.046 c 0.477 -0.9 1.637 -1.85 3.37 -1.85 c 3.601 0 4.267 2.37 4.267 5.455 v 6.286 z M 5.337 7.433 a 2.062 2.062 0 0 1 -2.063 -2.065 a 2.064 2.064 0 1 1 2.063 2.065 z m 1.782 13.019 H 3.555 V 9 h 3.564 v 11.452 z M 22.225 0 H 1.771 C 0.792 0 0 0.774 0 1.729 v 20.542 C 0 23.227 0.792 24 1.771 24 h 20.451 C 23.2 24 24 23.227 24 22.271 V 1.729 C 24 0.774 23.2 0 22.222 0 h 0.003 z" stroke-linecap="round" />
</g>
<g transform="matrix(0.6 0 0 0.6 391.91 92.33)"  >
<path style="stroke: rgb(0,0,0); stroke-opacity: 0; stroke-width: 1; stroke-dasharray: none; stroke-linecap: butt; stroke-dashoffset: 0; stroke-linejoin: miter; stroke-miterlimit: 4; fill: rgb(255,255,255); fill-rule: nonzero; opacity: 1;"  transform=" translate(-463.9, -227.7)" d="M 463.9 222.9 c 2.6 0 4.9 1.9 4.9 4.8 c 0 2.9 -2.3 4.8 -4.9 4.8 c -2.6 0 -4.9 -1.9 -4.9 -4.8 C 458.9 224.8 461.3 222.9 463.9 222.9 M 463.9 231.4 c 2 0 3.6 -1.6 3.6 -3.8 c 0 -2.2 -1.6 -3.8 -3.6 -3.8 c -2 0 -3.6 1.6 -3.6 3.8 C 460.2 229.9 461.8 231.4 463.9 231.4 M 461.9 225 h 2 c 1.3 0 2.1 0.4 2.1 1.6 c 0 1 -0.6 1.4 -1.4 1.4 l 1.4 2.3 H 465 l -1.3 -2.3 H 463 v 2.3 h -1.1 V 225 z M 463 227.2 h 0.9 c 0.6 0 1 -0.1 1 -0.7 c 0 -0.6 -0.6 -0.7 -1.1 -0.7 H 463 V 227.2 z" stroke-linecap="round" />
</g>
<g transform="matrix(0.6 0 0 0.6 11.77 51.42)"  >
<polygon style="stroke: rgb(0,0,0); stroke-opacity: 0; stroke-width: 1; stroke-dasharray: none; stroke-linecap: butt; stroke-dashoffset: 0; stroke-linejoin: miter; stroke-miterlimit: 4; fill: rgb(255,255,255); fill-rule: nonzero; opacity: 1;"  points="-16.9,-51.45 -1.6,-51.45 -1.6,37.25 16.9,37.25 16.9,51.45 -16.9,51.45 " />
</g>
<g transform="matrix(0.6 0 0 0.6 36.62 51.42)"  >
<polygon style="stroke: rgb(0,0,0); stroke-opacity: 0; stroke-width: 1; stroke-dasharray: none; stroke-linecap: butt; stroke-dashoffset: 0; stroke-linejoin: miter; stroke-miterlimit: 4; fill: rgb(255,255,255); fill-rule: nonzero; opacity: 1;"  points="-16.9,-51.45 16.9,-51.45 16.9,-37.45 -1.7,-37.45 -1.7,-11.55 16.5,-11.55 16.5,2.05 -1.7,2.05 -1.7,51.45 -16.9,51.45 " />
</g>
<g transform="matrix(0.6 0 0 0.6 72.19 51.39)"  >
<path style="stroke: rgb(0,0,0); stroke-opacity: 0; stroke-width: 1; stroke-dasharray: none; stroke-linecap: butt; stroke-dashoffset: 0; stroke-linejoin: miter; stroke-miterlimit: 4; fill: rgb(255,255,255); fill-rule: nonzero; opacity: 1;"  transform=" translate(-288.75, -274.5)" d="M 262 286.4 l -6 -63.3 h 15.1 l 2.9 36.4 c 0.7 10.1 1.3 23.4 1.7 39.4 h 1 c 0.7 -22.2 1.3 -34.6 1.6 -36.9 l 3.7 -39 h 16.6 l 3.1 41.3 c 0.3 3.4 0.7 15 0.9 34.6 h 1 c 0.6 -17.2 1.1 -30.3 2.1 -39.4 l 3.7 -36.4 h 12.1 l -10 102.9 h -16.9 l -4.6 -61.9 c -0.3 -4.6 -0.4 -8.9 -0.4 -13.2 v -4.1 H 289 c -0.7 12.6 -2.6 39 -6 79.2 h -18.3 C 264.4 315.3 263.4 302.1 262 286.4" stroke-linecap="round" />
</g>
</svg>