<?xml version="1.0" encoding="UTF-8" standalone="no" ?>
<!DOCTYPE svg PUBLIC "-//W3C//DTD SVG 1.1//EN" "http://www.w3.org/Graphics/SVG/1.1/DTD/svg11.dtd">
<svg xmlns="http://www.w3.org/2000/svg" xmlns:xlink="http://www.w3.org/1999/xlink" version="1.1" width="659" height="238" viewBox="0 0 1098.33 396.67" xml:space="preserve">
<desc>Created with Fabric.js 3.6.3</desc>
<defs>
</defs>
<g transform="matrix(1 0 0 1 20.49 2.13)"  >
<path style="stroke: none; stroke-width: 1; stroke-dasharray: none; stroke-linecap: butt; stroke-dashoffset: 0; stroke-linejoin: miter; stroke-miterlimit: 4; fill: rgb(255,255,255); fill-rule: nonzero; opacity: 1;"  transform=" translate(-12, -12)" d="M 20.447 20.452 h -3.554 v -5.569 c 0 -1.328 -0.027 -3.037 -1.852 -3.037 c -1.853 0 -2.136 1.445 -2.136 2.939 v 5.667 H 9.351 V 9 h 3.414 v 1.561 h 0.046 c 0.477 -0.9 1.637 -1.85 3.37 -1.85 c 3.601 0 4.267 2.37 4.267 5.455 v 6.286 z M 5.337 7.433 a 2.062 2.062 0 0 1 -2.063 -2.065 a 2.064 2.064 0 1 1 2.063 2.065 z m 1.782 13.019 H 3.555 V 9 h 3.564 v 11.452 z M 22.225 0 H 1.771 C 0.792 0 0 0.774 0 1.729 v 20.542 C 0 23.227 0.792 24 1.771 24 h 20.451 C 23.2 24 24 23.227 24 22.271 V 1.729 C 24 0.774 23.2 0 22.222 0 h 0.003 z" stroke-linecap="round" />
</g>
<g transform="matrix(1 0 0 1 83.73 173.91)"  >
<polygon style="stroke: rgb(0,0,0); stroke-opacity: 0; stroke-width: 1; stroke-dasharray: none; stroke-linecap: butt; stroke-dashoffset: 0; stroke-linejoin: miter; stroke-miterlimit: 4; fill: rgb(255,255,255); fill-rule: nonzero; opacity: 1;"  points="-16.9,-51.45 -1.6,-51.45 -1.6,37.25 16.9,37.25 16.9,51.45 -16.9,51.45 " />
</g>
<g transform="matrix(1 0 0 1 122.43 184.06)"  >
<path style="stroke: rgb(0,0,0); stroke-opacity: 0; stroke-width: 1; stroke-dasharray: none; stroke-linecap: butt; stroke-dashoffset: 0; stroke-linejoin: miter; stroke-miterlimit: 4; fill: rgb(255,255,255); fill-rule: nonzero; opacity: 1;"  transform=" translate(75.6, -284.7)" d="M -79.1 294.6 c 0 -5.4 1 -7.9 6.3 -11.3 v 27.6 c 0 3.1 -0.9 4.6 -3.1 4.6 c -2.4 0 -3.1 -1.6 -3.1 -4.6 V 294.6 z M -58.5 326 c -0.4 -3.3 -0.6 -6.3 -0.6 -9.4 v -58.3 c 0 -10.7 -4.7 -16 -16.9 -16 c -11.4 0 -16.7 5.3 -16.7 16 v 15.3 h 13.7 v -16.7 c 0 -3 0.6 -4.6 3 -4.6 c 2.3 0 3.1 1.4 3.1 4.6 v 7.9 c 0 7.7 -4.4 9 -11.4 13.4 c -7.1 4.4 -8.4 8.7 -8.4 16.9 v 17.6 c 0 9.3 1.4 14.4 9.6 14.4 c 4.7 0 7.7 -2.3 10.3 -7.3 h 0.3 v 1.7 c 0 1.7 0.1 3.3 0.4 4.6 H -58.5 z" stroke-linecap="round" />
</g>
<g transform="matrix(1 0 0 1 164.13 184.11)"  >
<path style="stroke: rgb(0,0,0); stroke-opacity: 0; stroke-width: 1; stroke-dasharray: none; stroke-linecap: butt; stroke-dashoffset: 0; stroke-linejoin: miter; stroke-miterlimit: 4; fill: rgb(255,255,255); fill-rule: nonzero; opacity: 1;"  transform=" translate(35.15, -284.75)" d="M -35.2 252.3 c -2.4 0 -3.1 1.6 -3.1 4.6 v 4.6 c 0 3.9 1 6.9 3.6 10.1 l 9.7 12.1 c 3.6 4.6 6.9 6.9 6.9 16.6 v 11.1 c 0 10.6 -5.7 15.9 -17 15.9 c -11.3 0 -17 -5.3 -17 -15.9 v -18 h 13.9 v 19.3 c 0 3 0.7 4.7 3.1 4.7 c 2.3 0 3.1 -1.6 3.1 -4.7 v -6.3 c 0 -5 -0.3 -7.7 -3 -11.1 L -45.8 282 c -3.6 -4.4 -6.4 -8.1 -6.4 -14.9 v -8.9 c 0 -10.6 5.7 -16 17 -16 c 11.3 0 17 5.4 17 16 v 15.3 h -13.9 v -16.7 C -32.1 253.7 -32.9 252.3 -35.2 252.3" stroke-linecap="round" />
</g>
<g transform="matrix(1 0 0 1 202.03 184.11)"  >
<path style="stroke: rgb(0,0,0); stroke-opacity: 0; stroke-width: 1; stroke-dasharray: none; stroke-linecap: butt; stroke-dashoffset: 0; stroke-linejoin: miter; stroke-miterlimit: 4; fill: rgb(255,255,255); fill-rule: nonzero; opacity: 1;"  transform=" translate(-4, -284.75)" d="M 7.1 277 H 0.8 v -20.2 c 0 -3 0.7 -4.6 3.1 -4.6 c 2.3 0 3.1 1.4 3.1 4.6 V 277 z M 0.8 312.7 v -25.9 H 21 v -28.6 c 0 -10.6 -5.7 -16 -17 -16 c -11.3 0 -17 5.4 -17 16 v 53.2 c 0 10.6 5.7 15.9 17 15.9 c 11.3 0 17 -5.3 17 -15.9 v -18 H 7.1 v 19.3 c 0 3 -0.7 4.7 -3.1 4.7 C 1.7 317.4 0.8 315.9 0.8 312.7" stroke-linecap="round" />
</g>
<g transform="matrix(1 0 0 1 240.78 183.71)"  >
<path style="stroke: rgb(0,0,0); stroke-opacity: 0; stroke-width: 1; stroke-dasharray: none; stroke-linecap: butt; stroke-dashoffset: 0; stroke-linejoin: miter; stroke-miterlimit: 4; fill: rgb(255,255,255); fill-rule: nonzero; opacity: 1;"  transform=" translate(-42.75, -284.35)" d="M 26 243.7 h 13.4 v 6.3 h 0.3 c 2 -4.9 5.4 -7.3 10.1 -7.3 c 8.1 0 9.7 5.1 9.7 14.4 v 19.2 H 46 v -17.5 c 0 -3 -0.7 -4.7 -3.1 -4.7 c -2.3 0 -3.1 1.6 -3.1 4.7 V 326 H 26 V 243.7 z" stroke-linecap="round" />
</g>
<g transform="matrix(1 0 0 1 280.83 173.91)"  >
<polygon style="stroke: rgb(0,0,0); stroke-opacity: 0; stroke-width: 1; stroke-dasharray: none; stroke-linecap: butt; stroke-dashoffset: 0; stroke-linejoin: miter; stroke-miterlimit: 4; fill: rgb(0,0,0); fill-rule: nonzero; opacity: 1;"  points="-16.9,-51.45 16.9,-51.45 16.9,-37.45 -1.7,-37.45 -1.7,-11.55 16.5,-11.55 16.5,2.05 -1.7,2.05 -1.7,51.45 -16.9,51.45 " />
</g>
<g transform="matrix(1 0 0 1 319.43 184.21)"  >
<path style="stroke: rgb(0,0,0); stroke-opacity: 0; stroke-width: 1; stroke-dasharray: none; stroke-linecap: butt; stroke-dashoffset: 0; stroke-linejoin: miter; stroke-miterlimit: 4; fill: rgb(0,0,0); fill-rule: nonzero; opacity: 1;"  transform=" translate(-121.4, -284.85)" d="M 118.3 256.8 c 0 -3 0.7 -4.6 3.1 -4.6 c 2.3 0 3.1 1.4 3.1 4.6 v 55.9 c 0 3 -0.7 4.7 -3.1 4.7 c -2.3 0 -3.1 -1.6 -3.1 -4.7 V 256.8 z M 104.4 258.3 v 53.2 c 0 10.6 5.7 15.9 17 15.9 c 11.3 0 17 -5.3 17 -15.9 v -53.2 c 0 -10.6 -5.7 -16 -17 -16 C 110.1 242.2 104.4 247.7 104.4 258.3" stroke-linecap="round" />
</g>
<g transform="matrix(1 0 0 1 358.23 184.11)"  >
<path style="stroke: rgb(0,0,0); stroke-opacity: 0; stroke-width: 1; stroke-dasharray: none; stroke-linecap: butt; stroke-dashoffset: 0; stroke-linejoin: miter; stroke-miterlimit: 4; fill: rgb(0,0,0); fill-rule: nonzero; opacity: 1;"  transform=" translate(-160.2, -284.75)" d="M 160.2 327.3 c -11.3 0 -17 -5.3 -17 -15.9 v -53.2 c 0 -10.6 5.7 -16 17 -16 c 11.3 0 17 5.4 17 16 v 15.3 h -13.9 v -16.7 c 0 -3.1 -0.9 -4.6 -3.1 -4.6 c -2.4 0 -3.1 1.6 -3.1 4.6 v 55.9 c 0 3.1 0.9 4.7 3.1 4.7 c 2.4 0 3.1 -1.7 3.1 -4.7 v -19.3 h 13.9 v 18 C 177.2 322 171.4 327.3 160.2 327.3" stroke-linecap="round" />
</g>
<g transform="matrix(1 0 0 1 396.58 184.71)"  >
<path style="stroke: rgb(0,0,0); stroke-opacity: 0; stroke-width: 1; stroke-dasharray: none; stroke-linecap: butt; stroke-dashoffset: 0; stroke-linejoin: miter; stroke-miterlimit: 4; fill: rgb(0,0,0); fill-rule: nonzero; opacity: 1;"  transform=" translate(-198.55, -285.35)" d="M 215.3 326 h -13.4 v -6.3 h -0.3 c -2 4.9 -5.4 7.3 -10.1 7.3 c -8.1 0 -9.7 -5.1 -9.7 -14.4 v -68.9 h 13.7 v 67.2 c 0 3 0.7 4.6 3.1 4.6 c 2.3 0 3.1 -1.4 3.1 -4.6 v -67.2 h 13.6 V 326 z" stroke-linecap="round" />
</g>
<g transform="matrix(1 0 0 1 435.23 184.11)"  >
<path style="stroke: rgb(0,0,0); stroke-opacity: 0; stroke-width: 1; stroke-dasharray: none; stroke-linecap: butt; stroke-dashoffset: 0; stroke-linejoin: miter; stroke-miterlimit: 4; fill: rgb(0,0,0); fill-rule: nonzero; opacity: 1;"  transform=" translate(-237.2, -284.75)" d="M 237.1 252.3 c -2.4 0 -3.1 1.6 -3.1 4.6 v 4.6 c 0 3.9 1 6.9 3.6 10.1 l 9.7 12.1 c 3.6 4.6 6.9 6.9 6.9 16.6 v 11.1 c 0 10.6 -5.7 15.9 -17 15.9 c -11.3 0 -17 -5.3 -17 -15.9 v -18 H 234 v 19.3 c 0 3 0.7 4.7 3.1 4.7 c 2.3 0 3.1 -1.6 3.1 -4.7 v -6.3 c 0 -5 -0.3 -7.7 -3 -11.1 L 226.6 282 c -3.6 -4.4 -6.4 -8.1 -6.4 -14.9 v -8.9 c 0 -10.6 5.7 -16 17 -16 c 11.3 0 17 5.4 17 16 v 15.3 h -13.9 v -16.7 C 240.3 253.7 239.4 252.3 237.1 252.3" stroke-linecap="round" />
</g>
<g transform="matrix(1 0 0 1 486.78 173.86)"  >
<path style="stroke: rgb(0,0,0); stroke-opacity: 0; stroke-width: 1; stroke-dasharray: none; stroke-linecap: butt; stroke-dashoffset: 0; stroke-linejoin: miter; stroke-miterlimit: 4; fill: rgb(255,255,255); fill-rule: nonzero; opacity: 1;"  transform=" translate(-288.75, -274.5)" d="M 262 286.4 l -6 -63.3 h 15.1 l 2.9 36.4 c 0.7 10.1 1.3 23.4 1.7 39.4 h 1 c 0.7 -22.2 1.3 -34.6 1.6 -36.9 l 3.7 -39 h 16.6 l 3.1 41.3 c 0.3 3.4 0.7 15 0.9 34.6 h 1 c 0.6 -17.2 1.1 -30.3 2.1 -39.4 l 3.7 -36.4 h 12.1 l -10 102.9 h -16.9 l -4.6 -61.9 c -0.3 -4.6 -0.4 -8.9 -0.4 -13.2 v -4.1 H 289 c -0.7 12.6 -2.6 39 -6 79.2 h -18.3 C 264.4 315.3 263.4 302.1 262 286.4" stroke-linecap="round" />
</g>
<g transform="matrix(1 0 0 1 538.33 184.21)"  >
<path style="stroke: rgb(0,0,0); stroke-opacity: 0; stroke-width: 1; stroke-dasharray: none; stroke-linecap: butt; stroke-dashoffset: 0; stroke-linejoin: miter; stroke-miterlimit: 4; fill: rgb(255,255,255); fill-rule: nonzero; opacity: 1;"  transform=" translate(-340.3, -284.85)" d="M 337.1 256.8 c 0 -3 0.7 -4.6 3.1 -4.6 c 2.3 0 3.1 1.4 3.1 4.6 v 55.9 c 0 3 -0.7 4.7 -3.1 4.7 c -2.3 0 -3.1 -1.6 -3.1 -4.7 V 256.8 z M 323.3 258.3 v 53.2 c 0 10.6 5.7 15.9 17 15.9 c 11.3 0 17 -5.3 17 -15.9 v -53.2 c 0 -10.6 -5.7 -16 -17 -16 C 329 242.2 323.3 247.7 323.3 258.3" stroke-linecap="round" />
</g>
<g transform="matrix(1 0 0 1 578.08 183.71)"  >
<path style="stroke: rgb(0,0,0); stroke-opacity: 0; stroke-width: 1; stroke-dasharray: none; stroke-linecap: butt; stroke-dashoffset: 0; stroke-linejoin: miter; stroke-miterlimit: 4; fill: rgb(255,255,255); fill-rule: nonzero; opacity: 1;"  transform=" translate(-380.05, -284.35)" d="M 363.3 243.7 h 13.4 v 6.3 h 0.3 c 2 -4.9 5.4 -7.3 10.1 -7.3 c 8.1 0 9.7 5.1 9.7 14.4 v 19.2 h -13.6 v -17.5 c 0 -3 -0.7 -4.7 -3.1 -4.7 c -2.3 0 -3.1 1.6 -3.1 4.7 V 326 h -13.7 V 243.7 z" stroke-linecap="round" />
</g>
<g transform="matrix(1 0 0 1 607.18 173.91)"  >
<rect style="stroke: rgb(0,0,0); stroke-opacity: 0; stroke-width: 1; stroke-dasharray: none; stroke-linecap: butt; stroke-dashoffset: 0; stroke-linejoin: miter; stroke-miterlimit: 4; fill: rgb(255,255,255); fill-rule: nonzero; opacity: 1;"  x="-6.85" y="-51.45" rx="0" ry="0" width="13.7" height="102.9" />
</g>
<g transform="matrix(1 0 0 1 637.13 175.61)"  >
<path style="stroke: rgb(0,0,0); stroke-opacity: 0; stroke-width: 1; stroke-dasharray: none; stroke-linecap: butt; stroke-dashoffset: 0; stroke-linejoin: miter; stroke-miterlimit: 4; fill: rgb(255,255,255); fill-rule: nonzero; opacity: 1;"  transform=" translate(-439.1, -275)" d="M 442.3 310.9 c 0 3.1 -0.9 4.6 -3.1 4.6 c -2.4 0 -3.1 -1.6 -3.1 -4.6 v -52 c 0 -3 0.7 -4.7 3.1 -4.7 c 2.3 0 3.1 1.6 3.1 4.7 V 310.9 z M 455.9 326 V 223.1 h -13.6 v 26.4 h -0.4 c -2 -4.6 -5.3 -6.9 -9.7 -6.9 c -8 0 -9.9 5.1 -9.9 15 v 54.9 c 0 9.3 1.6 14.4 9.7 14.4 c 4.7 0 8.1 -2.4 10.1 -7.3 h 0.3 v 6.3 H 455.9 z" stroke-linecap="round" />
</g>
<g transform="matrix(1 0 0 1 661.93 127.06)"  >
<path style="stroke: rgb(0,0,0); stroke-opacity: 0; stroke-width: 1; stroke-dasharray: none; stroke-linecap: butt; stroke-dashoffset: 0; stroke-linejoin: miter; stroke-miterlimit: 4; fill: rgb(255,255,255); fill-rule: nonzero; opacity: 1;"  transform=" translate(-463.9, -227.7)" d="M 463.9 222.9 c 2.6 0 4.9 1.9 4.9 4.8 c 0 2.9 -2.3 4.8 -4.9 4.8 c -2.6 0 -4.9 -1.9 -4.9 -4.8 C 458.9 224.8 461.3 222.9 463.9 222.9 M 463.9 231.4 c 2 0 3.6 -1.6 3.6 -3.8 c 0 -2.2 -1.6 -3.8 -3.6 -3.8 c -2 0 -3.6 1.6 -3.6 3.8 C 460.2 229.9 461.8 231.4 463.9 231.4 M 461.9 225 h 2 c 1.3 0 2.1 0.4 2.1 1.6 c 0 1 -0.6 1.4 -1.4 1.4 l 1.4 2.3 H 465 l -1.3 -2.3 H 463 v 2.3 h -1.1 V 225 z M 463 227.2 h 0.9 c 0.6 0 1 -0.1 1 -0.7 c 0 -0.6 -0.6 -0.7 -1.1 -0.7 H 463 V 227.2 z" stroke-linecap="round" />
</g>
</svg>